<?xml version="1.0" encoding="UTF-8"?>
<!DOCTYPE svg PUBLIC "-//W3C//DTD SVG 1.1//EN" "http://www.w3.org/Graphics/SVG/1.1/DTD/svg11.dtd">
<!-- Creator: CorelDRAW -->
<svg xmlns="http://www.w3.org/2000/svg" xml:space="preserve" width="320px" height="80px" style="shape-rendering:geometricPrecision; text-rendering:geometricPrecision; image-rendering:optimizeQuality; fill-rule:evenodd; clip-rule:evenodd"
viewBox="0 0 255.374 78.4585"
 xmlns:xlink="http://www.w3.org/1999/xlink">
 <defs>
  <style type="text/css">
   <![CDATA[
    .str0 {stroke:#605D5C;stroke-width:2.04374}
    .fil2 {fill:none}
    .fil3 {fill:#605D5C}
    .fil1 {fill:#72706F;fill-rule:nonzero}
    .fil0 {fill:#75C5F0;fill-rule:nonzero}
   ]]>
  </style>
 </defs>
 <g id="Layer_x0020_1">
  <metadata id="CorelCorpID_0Corel-Layer"/>
  <g id="_158655736">
   <path id="_158655616" class="fil0" d="M252.174 46.0606c1.0652,-0.285306 2.13203,-0.580966 3.20049,-0.888071l0 14.7966 -3.20049 0 0 -13.9086z"/>
   <path id="_158655784" class="fil0" d="M229.552 50.4356c1.06465,-0.121534 2.13148,-0.257238 3.20049,-0.404387l0 9.93801 -3.20049 0 0 -9.53362z"/>
   <path id="_158655520" class="fil1" d="M229.492 21.0458l2.76422 0 0.290756 5.38238 0.218271 0c1.79413,-1.79413 3.63703,-3.28524 5.52817,-4.47333 1.89114,-1.18809 4.04905,-1.78214 6.47347,-1.78214 3.63703,0 6.30397,1.09108 8.00109,3.27325 1.69739,2.18216 2.54595,5.55242 2.54595,10.1105l0 7.60651c-1.06847,0.307105 -2.1353,0.602766 -3.20049,0.888071l0 -8.05804c0,-3.73404 -0.618298,-6.48573 -1.85489,-8.25588 -1.23632,-1.76988 -3.28524,-2.65468 -6.1462,-2.65468 -2.08516,0 -3.97629,0.545541 -5.67341,1.63635 -1.69739,1.09108 -3.61278,2.72771 -5.74644,4.90987l0 16.3929c-1.06901,0.147149 -2.13584,0.282853 -3.20049,0.404387l0 -25.3802z"/>
  </g>
  <g id="_158655760">
   <path id="_158655472" class="fil0" d="M192.13 48.8251c1.25267,0.276313 2.51025,0.528374 3.77301,0.756727 0.599496,1.57776 1.3723,2.95524 2.31814,4.13189 1.09108,1.35786 2.38817,2.41243 3.89155,3.16425 1.5031,0.75155 3.12773,1.12732 4.87336,1.12732 1.74562,0 3.38225,-0.375775 4.9096,-1.12732 1.52762,-0.751822 2.83698,-1.80639 3.92806,-3.16425 0.595953,-0.74174 1.12324,-1.56332 1.58185,-2.4642 1.23033,-0.0226173 2.46393,-0.0629471 3.70134,-0.123169 -0.808229,1.91076 -1.84209,3.54902 -3.1013,4.91505 -1.43034,1.5516 -3.10348,2.7397 -5.01887,3.564 -1.91539,0.824579 -3.91553,1.2366 -6.00068,1.2366 -2.08516,0 -4.0733,-0.412017 -5.96444,-1.2366 -1.89114,-0.824307 -3.55201,-2.0124 -4.98263,-3.564 -1.43034,-1.55188 -2.56993,-3.455 -3.41876,-5.70993 -0.183119,-0.486954 -0.346618,-0.989168 -0.490224,-1.50637z"/>
   <path id="_158655952" class="fil1" d="M191.287 38.5754c0,-2.90946 0.42428,-5.51591 1.27284,-7.81933 0.848832,-2.30315 1.98842,-4.23081 3.41876,-5.78241 1.43062,-1.55188 3.09149,-2.73997 4.98263,-3.56428 1.89114,-0.824307 3.87928,-1.2366 5.96444,-1.2366 2.08516,0 4.08529,0.41229 6.00068,1.2366 1.91539,0.824307 3.58853,2.0124 5.01887,3.56428 1.43062,1.5516 2.5702,3.47926 3.41876,5.78241 0.848559,2.30343 1.27284,4.90987 1.27284,7.81933 0,2.90946 -0.42428,5.49165 -1.27284,7.74658 -0.101642,0.270046 -0.207371,0.534914 -0.31746,0.794877 -1.23741,0.0602221 -2.47101,0.100552 -3.70134,0.123169 0.38068,-0.74828 0.714218,-1.55106 1.00007,-2.40916 0.630561,-1.89114 0.945841,-3.97629 0.945841,-6.25547 0,-2.32741 -0.31528,-4.43681 -0.945841,-6.32822 -0.630288,-1.89114 -1.49111,-3.52776 -2.58192,-4.9096 -1.09108,-1.38211 -2.40044,-2.44894 -3.92806,-3.20049 -1.52735,-0.75155 -3.16398,-1.12732 -4.9096,-1.12732 -1.74562,0 -3.37026,0.375775 -4.87336,1.12732 -1.50337,0.75155 -2.80046,1.81838 -3.89155,3.20049 -1.09108,1.38184 -1.9519,3.01846 -2.58219,4.9096 -0.630288,1.89141 -0.945568,4.00082 -0.945568,6.32822 0,2.27917 0.31528,4.36433 0.945568,6.25547 0.0839294,0.251788 0.171946,0.498944 0.264051,0.741467 -1.26276,-0.228353 -2.52034,-0.480414 -3.77301,-0.756727 -0.521834,-1.87887 -0.782615,-3.95885 -0.782615,-6.24021z"/>
  </g>
  <g id="_158656096">
   <path id="_158655400" class="fil0" d="M156.522 37.617c1.10007,0.195381 2.19524,0.415015 3.28578,0.655358 -0.273316,1.34314 -0.409837,2.78057 -0.409837,4.31256 0,2.27917 0.31528,4.36433 0.945568,6.25547 0.630288,1.89114 1.49111,3.51577 2.58219,4.87336 1.09108,1.35786 2.38817,2.41243 3.89155,3.16425 1.5031,0.75155 3.12773,1.12732 4.87336,1.12732 1.74562,0 3.38225,-0.375775 4.9096,-1.12732 1.52762,-0.751822 2.83698,-1.80639 3.92806,-3.16425 1.09081,-1.35759 1.95163,-2.98222 2.58192,-4.87336 0.242796,-0.728387 0.438994,-1.48566 0.588323,-2.27182 1.07337,0.338988 2.15083,0.659173 3.23265,0.960283 -0.202194,0.984536 -0.469514,1.91866 -0.802234,2.80264 -0.848559,2.25492 -1.98815,4.15805 -3.41876,5.70993 -1.43034,1.5516 -3.10348,2.7397 -5.01887,3.564 -1.91539,0.824579 -3.91553,1.2366 -6.00068,1.2366 -2.08516,0 -4.0733,-0.412017 -5.96444,-1.2366 -1.89114,-0.824307 -3.55201,-2.0124 -4.98263,-3.564 -1.43034,-1.55188 -2.56993,-3.455 -3.41876,-5.70993 -0.848559,-2.25492 -1.27284,-4.83711 -1.27284,-7.74658 0,-1.76797 0.156686,-3.42394 0.470059,-4.96791z"/>
   <path id="_158655712" class="fil1" d="M156.462 33.6075c0.202194,-0.997071 0.469787,-1.94754 0.802779,-2.85142 0.848832,-2.30315 1.98842,-4.23081 3.41876,-5.78241 1.43062,-1.55188 3.09149,-2.73997 4.98263,-3.56428 1.89114,-0.824307 3.87928,-1.2366 5.96444,-1.2366 2.08516,0 4.08529,0.41229 6.00068,1.2366 1.91539,0.824307 3.58853,2.0124 5.01887,3.56428 1.43062,1.5516 2.5702,3.47926 3.41876,5.78241 0.848559,2.30343 1.27284,4.90987 1.27284,7.81933 0,1.76906 -0.156959,3.41685 -0.470604,4.94393 -1.08182,-0.30111 -2.15928,-0.621296 -3.23265,-0.960283 0.238436,-1.25458 0.357518,-2.58246 0.357518,-3.98365 0,-2.32741 -0.31528,-4.43681 -0.945841,-6.32822 -0.630288,-1.89114 -1.49111,-3.52776 -2.58192,-4.9096 -1.09108,-1.38211 -2.40044,-2.44894 -3.92806,-3.20049 -1.52735,-0.75155 -3.16398,-1.12732 -4.9096,-1.12732 -1.74562,0 -3.37026,0.375775 -4.87336,1.12732 -1.50337,0.75155 -2.80046,1.81838 -3.89155,3.20049 -1.09108,1.38184 -1.9519,3.01846 -2.58219,4.9096 -0.215546,0.646366 -0.394032,1.31835 -0.535731,2.01567 -1.09054,-0.240343 -2.18571,-0.459977 -3.28578,-0.655358z"/>
  </g>
  <g id="_158655112">
   <path id="_158656048" class="fil0" d="M120.611 37.4998c1.21997,-0.157231 2.44077,-0.303563 3.66183,-0.435725 -0.501669,1.73418 -0.752367,3.57436 -0.752367,5.52081 0,2.32768 0.254513,4.43709 0.763812,6.32822 0.509027,1.89114 1.24859,3.50351 2.21841,4.83711 0.969821,1.33333 2.1699,2.37591 3.60052,3.12773 1.43034,0.75155 3.06697,1.12732 4.9096,1.12732 1.93991,0 3.79454,-0.497037 5.56441,-1.49111 1.77015,-0.994073 3.57627,-2.41243 5.41917,-4.25506l0 -15.8692c1.06928,0.0645821 2.13639,0.146059 3.20022,0.245248l0 23.334 -2.76395 0 -0.291028 -4.50984 -0.217999 0c-1.40636,1.40636 -3.06724,2.65495 -4.98263,3.74603 -1.91539,1.09108 -4.03679,1.63662 -6.36447,1.63662 -4.41283,0 -7.92833,-1.56387 -10.547,-4.6916 -2.61843,-3.12773 -3.92779,-7.64957 -3.92779,-13.5655 0,-1.80476 0.169766,-3.49997 0.509299,-5.08509z"/>
   <path id="_158655136" class="fil1" d="M120.55 33.4903c0.189386,-0.885074 0.43191,-1.73554 0.727297,-2.55222 0.824307,-2.27917 1.9519,-4.21882 3.38225,-5.81892 1.43062,-1.60038 3.07923,-2.82472 4.94611,-3.67327 1.86688,-0.848559 3.84304,-1.27311 5.9282,-1.27311 2.13366,0 3.98828,0.376047 5.56441,1.1276 1.57586,0.75155 3.23673,1.80639 4.98236,3.16398l-0.145242 -6.40071 0 -14.4021 3.20022 0 0 28.9641c-1.06383,-0.0991893 -2.13094,-0.180666 -3.20022,-0.245248l0 -4.86109c-1.8429,-1.64861 -3.57627,-2.81245 -5.2009,-3.49125 -1.62436,-0.679065 -3.28524,-1.01833 -4.98236,-1.01833 -1.7459,0 -3.37026,0.400027 -4.87336,1.20008 -1.50337,0.800054 -2.80046,1.89114 -3.89155,3.27325 -1.09108,1.38184 -1.9519,3.03072 -2.58219,4.94611 -0.0681245,0.206826 -0.132434,0.41556 -0.193201,0.625383 -1.22106,0.132162 -2.44186,0.278493 -3.66183,0.435725z"/>
  </g>
  <g id="_158654824">
   <path id="_158655064" class="fil0" d="M110.555 39.0422c1.0652,-0.186661 2.13203,-0.3676 3.20049,-0.540909l0 21.4679 -3.20049 0 0 -20.927z"/>
   <path id="_158655040" class="fil0" d="M87.9332 43.6659c1.06056,-0.212276 2.12739,-0.434907 3.20049,-0.66762l0 16.9709 -3.20049 0 0 -16.3033z"/>
   <path id="_158655280" class="fil1" d="M87.873 21.0458l2.76422 0 0.290756 5.38238 0.218271 0c1.79413,-1.79413 3.63703,-3.28524 5.52817,-4.47333 1.89114,-1.18809 4.04905,-1.78214 6.47347,-1.78214 3.63703,0 6.30397,1.09108 8.00109,3.27325 1.69739,2.18216 2.54595,5.55242 2.54595,10.1105l0 0.935214c-1.06847,0.173309 -2.1353,0.354248 -3.20049,0.540909l0 -1.03958c0,-3.73404 -0.618298,-6.48573 -1.85489,-8.25588 -1.23632,-1.76988 -3.28524,-2.65468 -6.1462,-2.65468 -2.08516,0 -3.97629,0.545541 -5.67341,1.63635 -1.69739,1.09108 -3.61278,2.72771 -5.74644,4.90987l0 9.36004c-1.0731,0.232713 -2.13993,0.455344 -3.20049,0.66762l0 -18.6105z"/>
  </g>
  <g id="_158654584">
   <path id="_158654992" class="fil0" d="M54.3454 46.7111c1.21425,0.0485047 2.43722,0.076572 3.66864,0.0855644 -0.144697,0.192384 -0.276313,0.388582 -0.39376,0.588868 -0.654813,1.11533 -0.982083,2.35193 -0.982083,3.70979 0,2.52143 0.727297,4.31583 2.18216,5.38238 1.45459,1.06683 3.17624,1.60038 5.16438,1.60038 2.03665,0 3.97629,-0.485047 5.81892,-1.45487 1.84263,-0.969821 3.85503,-2.37591 6.0372,-4.21882l0 -6.74106c1.06029,-0.135704 2.12712,-0.283398 3.20049,-0.442809l0 14.7487 -2.69146 0 -0.363513 -4.50984 -0.145514 0c-1.79413,1.40636 -3.72178,2.65495 -5.78268,3.74603 -2.0609,1.09108 -4.25506,1.63662 -6.58274,1.63662 -1.40609,0 -2.71544,-0.194019 -3.92779,-0.581784 -1.21234,-0.388037 -2.29116,-0.969821 -3.23673,-1.7459 -0.945568,-0.775802 -1.68513,-1.76988 -2.21841,-2.98222 -0.533551,-1.21207 -0.800327,-2.64269 -0.800327,-4.2913 0,-1.68322 0.35125,-3.19313 1.05321,-4.52974z"/>
   <path id="_158654608" class="fil1" d="M54.2852 42.7015c0.895974,-1.70584 2.3631,-3.12991 4.40221,-4.27168 3.63676,-2.03665 9.3347,-3.49125 17.0933,-4.36406 0.0485047,-1.30935 -0.0362423,-2.6307 -0.254513,-3.9643 -0.218271,-1.33361 -0.630561,-2.52143 -1.2366,-3.564 -0.606036,-1.04258 -1.45487,-1.89141 -2.54595,-2.54595 -1.09081,-0.654541 -2.48518,-0.981811 -4.1823,-0.981811 -2.37618,0 -4.53382,0.460522 -6.47347,1.38184 -1.93991,0.921316 -3.49152,1.81838 -4.65536,2.69146l-1.45459 -2.40044c0.630288,-0.436542 1.3941,-0.921316 2.29116,-1.45487 0.897064,-0.533279 1.89114,-1.01833 2.98222,-1.45459 1.09108,-0.436542 2.29116,-0.812317 3.60052,-1.1276 1.30935,-0.315008 2.66694,-0.472784 4.0733,-0.472784 2.08516,0 3.83078,0.351795 5.23714,1.05484 1.40609,0.703045 2.54568,1.66088 3.41849,2.87322 0.872811,1.21207 1.49111,2.63042 1.85489,4.25506 0.363785,1.62436 0.545541,3.38225 0.545541,5.27338l0 7.58172c-1.07337,0.159411 -2.1402,0.307105 -3.20049,0.442809l0 -5.11506c-3.58826,0.436542 -6.60699,0.969821 -9.05593,1.60038 -2.44867,0.630288 -4.42482,1.38184 -5.92792,2.25465 -1.23333,0.716398 -2.1808,1.514 -2.84297,2.39335 -1.23142,-0.00899244 -2.45439,-0.0370597 -3.66864,-0.0855644z"/>
  </g>
  <g id="_158653936">
   <g>
    <rect id="_158654920" class="fil2 str0" x="1.02187" y="1.02187" width="48.7164" height="76.4147" rx="5.44996" ry="5.44996"/>
    <rect id="_158654896" class="fil2 str0" x="5.51223" y="5.32158" width="39.7357" height="59.6036" rx="2.72498" ry="2.72498"/>
    <circle id="_158655256" class="fil3" cx="25.3801" cy="70.9699" r="2.47577"/>
   </g>
   <g>
    <path id="_158654200" class="fil0" d="M24.2101 45.1707l0 5.41536c0,1.11533 0.0850194,2.12167 0.254786,3.01873 0.169494,0.897064 0.472784,1.67287 0.909054,2.32741 0.436542,0.654813 1.03059,1.16384 1.78214,1.52762 0.75155,0.363785 1.73363,0.545541 2.94598,0.545541 0.678793,0 1.41835,-0.108999 2.21841,-0.32727 0.800054,-0.218271 1.51536,-0.472784 2.14565,-0.763812l0.872811 2.61843c-1.01833,0.388037 -2.03665,0.703318 -3.05498,0.945568 -1.01833,0.242523 -1.89114,0.363785 -2.61843,0.363785 -1.69712,0 -3.10348,-0.254513 -4.21882,-0.763812 -1.11533,-0.509027 -2.0124,-1.22433 -2.69119,-2.14565 -0.679065,-0.921316 -1.15185,-2.03665 -1.41835,-3.346 -0.266776,-1.30908 -0.400027,-2.7397 -0.400027,-4.2913l0 -5.78759c1.08454,0.240343 2.17508,0.461339 3.27297,0.662988z"/>
    <path id="_158653984" class="fil1" d="M20.8769 23.8098l-5.45541 0 0 -2.47319 5.52817 -0.290756 0.43627 -10.1105 2.76395 0 0 10.1105 10.1105 0 0 2.76395 -10.1105 0 0 17.3513c-1.09789,-0.201649 -2.18843,-0.422645 -3.27297,-0.662988l0 -16.6883z"/>
   </g>
  </g>
 </g>
</svg>
