<?xml version="1.0" encoding="UTF-8"?>
<!DOCTYPE svg PUBLIC "-//W3C//DTD SVG 1.1//EN" "http://www.w3.org/Graphics/SVG/1.1/DTD/svg11.dtd">
<!-- Creator: CorelDRAW -->
<svg xmlns="http://www.w3.org/2000/svg" xml:space="preserve" width="514px" height="600px" style="shape-rendering:geometricPrecision; text-rendering:geometricPrecision; image-rendering:optimizeQuality; fill-rule:evenodd; clip-rule:evenodd"
viewBox="0 0 327.519 378.118"
 xmlns:xlink="http://www.w3.org/1999/xlink">
 <defs>
  <style type="text/css">
   <![CDATA[
    .str0 {stroke:#1F1A17;stroke-width:2.18581}
    .fil0 {fill:none}
    .fil6 {fill:#1F1A17}
    .fil2 {fill:#383431}
    .fil3 {fill:#605D5C}
    .fil4 {fill:#70614E}
    .fil1 {fill:#75C5F0}
    .fil5 {fill:#7A897F}
   ]]>
  </style>
 </defs>
 <g id="Layer_x0020_1">
  <metadata id="CorelCorpID_0Corel-Layer"/>
  <rect class="fil0 str0" x="175.435" y="36.9897" width="133.419" height="318.994"/>
  <path id="filler" class="fil1" d="M176.527 169.656c17.0659,8.79393 37.5484,9.11372 62.1547,0 21.5929,-7.99764 46.053,0 69.0795,0l0 186.327 -131.234 0c0,-62.1092 0,-124.218 0,-186.327z"/>
  <g id="_155402984">
   <rect id="_155401328" class="fil2" x="4.03456" y="321.548" width="29.5704" height="7.65032"/>
   <path id="_155403344" class="fil2" d="M7.65032 325.486l0 52.6145 -7.65032 0 0 -52.6145c0,-2.11214 1.71302,-3.82516 3.82516,-3.82516 2.11214,0 3.82516,1.71302 3.82516,3.82516z"/>
  </g>
  <rect class="fil3 str0" x="15.3725" y="355.96" width="311.054" height="21.0655"/>
  <path class="fil0 str0" d="M242.145 36.6501l-66.7097 0c0,-19.6342 29.8732,-35.5572 66.7097,-35.5572 36.8365,0 66.7097,15.9229 66.7097,35.5572l-66.7097 0z"/>
  <g id="_156278168">
   <rect id="_156502024" class="fil2" x="162.766" y="41.2623" width="12.6178" height="7.65032"/>
   <path id="_156501472" class="fil2" d="M158.988 45.2722l0.00983612 0c-0.00633884,-0.0887437 -0.00983612,-0.178362 -0.00983612,-0.268635 0,-2.0658 1.71302,-3.74122 3.82516,-3.74122 2.11214,0 3.82516,1.67542 3.82516,3.74122 0,0.0902738 -0.00349729,0.179892 -0.00983612,0.268635l0.00983612 0 0 280.512 -0.00218581 0c0.00131148,0.0404374 0.00218581,0.0810934 0.00218581,0.121968 0,2.0658 -1.71302,3.74122 -3.82516,3.74122 -2.11214,0 -3.82516,-1.67542 -3.82516,-3.74122 0,-0.0408746 0.000874322,-0.0815305 0.00218581,-0.121968l-0.00218581 0 0 -280.512z"/>
   <rect id="_155402960" class="fil2" x="141.834" y="321.999" width="20.9168" height="7.65032"/>
  </g>
  <g id="_156280184">
   <rect id="_111523712" class="fil4 str0" x="34.0581" y="308.727" width="107.323" height="34.2583"/>
   <polygon id="_155401688" class="fil5 str0" points="135.317,325.856 123.418,340.822 111.518,355.787 87.7194,355.787 63.9206,355.787 52.0211,340.822 40.1216,325.856 52.0211,310.891 63.9206,295.925 87.7194,295.925 111.518,295.925 123.418,310.891 "/>
   <g>
    <g>
     <rect id="_155401424" class="fil6" x="54.3946" y="324.764" width="66.6496" height="2.18581"/>
     <rect id="_111523088" class="fil6" x="60.2323" y="317.45" width="54.9743" height="2.18581"/>
     <rect id="_155403656" class="fil6" x="65.499" y="310.331" width="44.4409" height="2.18581"/>
    </g>
    <rect id="_155401616" class="fil6" x="60.2323" y="332.076" width="54.9743" height="2.18581"/>
    <rect id="_155402744" class="fil6" x="65.499" y="339.196" width="44.4409" height="2.18581"/>
   </g>
  </g>
 </g>
</svg>
